<?xml version="1.0" encoding="UTF-8"?>
<svg id="Layer_2" data-name="Layer 2" xmlns="http://www.w3.org/2000/svg" viewBox="0 0 60 60">
  <defs>
    <style>
      .cls-1 {
        fill: #f6e821;
      }

      .cls-2 {
        fill: #e41676;
      }
    </style>
  </defs>
  <g id="Layer_8" data-name="Layer 8">
    <g>
      <circle class="cls-2" cx="30" cy="30" r="30"/>
      <path class="cls-1" d="m17.95,25.33c2.15,0,4.3-.03,6.45.02.66.01.92-.23,1.11-.82,1.31-4.11,2.65-8.21,3.99-12.3.09-.28.07-.72.47-.74.48-.03.44.46.54.76,1.32,4.05,2.66,8.1,3.93,12.16.24.76.59.95,1.33.95,4.25-.03,8.49-.02,12.74-.02.13,0,.27-.01.4,0,.2.02.44,0,.51.28.06.26-.11.38-.29.51-1.07.78-2.14,1.57-3.21,2.35-2.53,1.84-5.05,3.69-7.6,5.51-.48.34-.55.65-.37,1.19,1.35,4.09,2.68,8.2,4.02,12.3.04.13.1.25.13.38.05.2.16.42-.05.59-.24.19-.44.04-.64-.11-1.34-.99-2.69-1.98-4.04-2.97-2.23-1.62-4.47-3.22-6.7-4.85-.46-.34-.8-.37-1.31,0-3.48,2.57-6.98,5.09-10.49,7.62-.24.17-.49.55-.82.33-.38-.25-.12-.63-.02-.94,1.33-4.1,2.65-8.21,4-12.31.2-.61.09-.93-.43-1.3-3.54-2.53-7.04-5.1-10.56-7.66-.22-.16-.58-.28-.45-.65.12-.36.48-.27.75-.27,2.2,0,4.4,0,6.61,0h0Z"/>
    </g>
  </g>
</svg>